<svg width="23" height="23" viewBox="0 0 23 23" fill="none" xmlns="http://www.w3.org/2000/svg">
<path fill-rule="evenodd" clip-rule="evenodd" d="M3.13636 10.4545C3.71375 10.4545 4.18182 10.9226 4.18182 11.5V20.9091H18.8182V11.5C18.8182 10.9226 19.2862 10.4545 19.8636 10.4545C20.441 10.4545 20.9091 10.9226 20.9091 11.5V21.9545C20.9091 22.5319 20.441 23 19.8636 23H3.13636C2.55897 23 2.09091 22.5319 2.09091 21.9545V11.5C2.09091 10.9226 2.55897 10.4545 3.13636 10.4545Z" fill="white"/>
<path fill-rule="evenodd" clip-rule="evenodd" d="M0 6.27273C0 5.69534 0.468066 5.22727 1.04545 5.22727H21.9545C22.5319 5.22727 23 5.69534 23 6.27273V11.5C23 12.0774 22.5319 12.5455 21.9545 12.5455H1.04545C0.468066 12.5455 0 12.0774 0 11.5V6.27273ZM2.09091 7.31818V10.4545H20.9091V7.31818H2.09091Z" fill="white"/>
<path fill-rule="evenodd" clip-rule="evenodd" d="M11.5 5.22727C12.0774 5.22727 12.5455 5.69534 12.5455 6.27273V21.9545C12.5455 22.5319 12.0774 23 11.5 23C10.9226 23 10.4545 22.5319 10.4545 21.9545V6.27273C10.4545 5.69534 10.9226 5.22727 11.5 5.22727Z" fill="white"/>
<path fill-rule="evenodd" clip-rule="evenodd" d="M6.79545 2.09091C6.37955 2.09091 5.98067 2.25613 5.68658 2.55022C5.39249 2.84431 5.22727 3.24318 5.22727 3.65909C5.22727 4.075 5.39249 4.47387 5.68658 4.76796C5.98067 5.06205 6.37955 5.22727 6.79545 5.22727H10.0928C9.96522 4.89337 9.80365 4.52621 9.60384 4.16291C8.94629 2.96736 8.04362 2.09091 6.79545 2.09091ZM11.5 6.27273C12.5252 6.0677 12.525 6.06696 12.525 6.06696L12.5244 6.06403L12.5233 6.05844L12.5198 6.04161C12.5169 6.02792 12.5129 6.00932 12.5077 5.98615C12.4973 5.93983 12.4823 5.87509 12.4622 5.79456C12.422 5.63371 12.3611 5.40858 12.2761 5.14035C12.1075 4.60765 11.838 3.88631 11.4359 3.15527C10.656 1.73719 9.20638 0 6.79545 0C5.825 0 4.8943 0.38551 4.20809 1.07172C3.52187 1.75794 3.13636 2.68864 3.13636 3.65909C3.13636 4.62954 3.52187 5.56025 4.20809 6.24646C4.8943 6.93267 5.825 7.31818 6.79545 7.31818H11.5C11.8132 7.31818 12.1099 7.17775 12.3085 6.93553C12.5071 6.69331 12.5864 6.37409 12.525 6.06696L11.5 6.27273Z" fill="white"/>
<path fill-rule="evenodd" clip-rule="evenodd" d="M11.5641 3.15527C12.344 1.73719 13.7936 0 16.2045 0C17.175 0 18.1057 0.38551 18.7919 1.07172C19.4781 1.75794 19.8636 2.68864 19.8636 3.65909C19.8636 4.62954 19.4781 5.56025 18.7919 6.24646C18.1057 6.93267 17.175 7.31818 16.2045 7.31818H11.5C11.1868 7.31818 10.8901 7.17775 10.6915 6.93553C10.4929 6.69331 10.4134 6.37483 10.4748 6.0677L11.5 6.27273C10.4748 6.0677 10.4748 6.0677 10.4748 6.0677L10.4752 6.06611L10.4756 6.06403L10.4767 6.05844L10.4802 6.04161C10.4831 6.02792 10.4871 6.00932 10.4923 5.98615C10.5027 5.93983 10.5177 5.87509 10.5378 5.79456C10.578 5.63371 10.6389 5.40858 10.7238 5.14035C10.8925 4.60765 11.162 3.88631 11.5641 3.15527ZM12.9072 5.22727H16.2045C16.6205 5.22727 17.0193 5.06205 17.3134 4.76796C17.6075 4.47387 17.7727 4.075 17.7727 3.65909C17.7727 3.24318 17.6075 2.84431 17.3134 2.55022C17.0193 2.25613 16.6205 2.09091 16.2045 2.09091C14.9564 2.09091 14.0537 2.96736 13.3962 4.16291C13.1963 4.52621 13.0348 4.89337 12.9072 5.22727Z" fill="white"/>
</svg>
