<svg width="23" height="21" viewBox="0 0 23 21" fill="none" xmlns="http://www.w3.org/2000/svg">
<path fill-rule="evenodd" clip-rule="evenodd" d="M13.9131 0.879169C14.702 0.552323 15.5474 0.384094 16.4013 0.384094C17.2551 0.384094 18.1006 0.552323 18.8894 0.879169C19.6781 1.20596 20.3947 1.6849 20.9982 2.28865C21.602 2.8922 22.0813 3.6091 22.408 4.39777C22.7349 5.18659 22.9031 6.03207 22.9031 6.88592C22.9031 7.73977 22.7349 8.58525 22.408 9.37407C22.0812 10.1628 21.6022 10.8794 20.9984 11.483L12.1584 20.323C11.7679 20.7136 11.1347 20.7136 10.7442 20.323L1.90418 11.483C0.684956 10.2638 0 8.61017 0 6.88592C0 5.16167 0.684956 3.50804 1.90418 2.28881C3.12341 1.06958 4.77704 0.384629 6.50129 0.384629C8.22554 0.384629 9.87917 1.06958 11.0984 2.28881L11.4513 2.64171L11.804 2.28898C12.4076 1.68515 13.1244 1.20599 13.9131 0.879169Z" fill="#18CA75"/>
</svg>
