<svg width="44" height="39" viewBox="0 0 44 39" fill="none" xmlns="http://www.w3.org/2000/svg">
<path fill-rule="evenodd" clip-rule="evenodd" d="M26.729 0.954334C28.2445 0.324287 29.8687 0 31.5091 0C33.1495 0 34.7738 0.324287 36.2892 0.954334C37.8043 1.58427 39.181 2.50751 40.3405 3.67132C41.5003 4.83476 42.4211 6.21671 43.0489 7.73699C43.6768 9.25755 44 10.8874 44 12.5333C44 14.1792 43.6768 15.809 43.0489 17.3296C42.421 18.85 41.5008 20.2314 40.3408 21.3949C40.3407 21.395 40.3409 21.3948 40.3408 21.3949L23.3579 38.4354C22.6077 39.1882 21.3913 39.1882 20.641 38.4354L3.6582 21.3949C1.31589 19.0447 0 15.857 0 12.5333C0 9.20952 1.31589 6.0219 3.6582 3.67164C6.0005 1.32139 9.17735 0.00103086 12.4899 0.00103086C15.8024 0.00103086 18.9792 1.32139 21.3215 3.67164L21.9995 4.3519L22.6771 3.67196C22.6772 3.67186 22.677 3.67207 22.6771 3.67196C23.8367 2.508 25.2138 1.58432 26.729 0.954334ZM31.5091 3.85531C30.3735 3.85531 29.249 4.07982 28.1998 4.51601C27.1507 4.95219 26.1975 5.59151 25.3947 6.39744L23.3579 8.44108C22.6077 9.19387 21.3913 9.19387 20.641 8.44108L18.6046 6.39776C16.9829 4.77052 14.7833 3.85634 12.4899 3.85634C10.1964 3.85634 7.99683 4.77052 6.37509 6.39776C4.75335 8.025 3.84227 10.232 3.84227 12.5333C3.84227 14.8346 4.75336 17.0416 6.37509 18.6688L21.9995 34.3462L37.6239 18.6688C38.4271 17.8633 39.0646 16.9065 39.4993 15.8538C39.934 14.8011 40.1577 13.6728 40.1577 12.5333C40.1577 11.3938 39.934 10.2655 39.4993 9.21277C39.0646 8.16007 38.4274 7.20363 37.6242 6.39808C36.8214 5.59215 35.8675 4.95219 34.8184 4.51601C33.7692 4.07982 32.6447 3.85531 31.5091 3.85531Z" fill="#3D3D3D"/>
</svg>
