<svg width="63" height="45" viewBox="0 0 63 45" fill="none" xmlns="http://www.w3.org/2000/svg">
<path d="M49.8597 22.5869C49.8597 25.0437 46.8141 27.3719 42.1447 28.8157C43.2222 33.6234 42.7433 37.4484 40.6331 38.6729C40.1467 38.9602 39.578 39.0963 38.9569 39.0963V37.4106C39.3011 37.4106 39.578 37.3425 39.81 37.214C40.8277 36.6244 41.2692 34.3793 40.9249 31.4917C40.8426 30.7811 40.7079 30.0328 40.5433 29.2693C39.0766 29.6321 37.4752 29.9118 35.7915 30.0932C34.7813 31.4917 33.7337 32.7616 32.6786 33.8728C35.1181 36.1633 37.4079 37.4181 38.9644 37.4181V39.1038C36.9065 39.1038 34.2126 37.6222 31.4888 35.0521C28.7649 37.6071 26.071 39.0736 24.0132 39.0736V37.3879C25.5622 37.3879 27.8595 36.1406 30.299 33.8653C29.2513 32.7541 28.2037 31.4917 27.2085 30.0932C25.5173 29.9118 23.9159 29.6321 22.4492 29.2617C22.2771 30.0176 22.1499 30.7509 22.0601 31.4539C21.7084 34.3415 22.1424 36.5866 23.1526 37.1838C23.3771 37.3198 23.669 37.3803 24.0132 37.3803V39.066C23.3846 39.066 22.8159 38.93 22.322 38.6427C20.2193 37.4181 19.7478 33.6007 20.8329 28.8082C16.1784 27.3568 13.1478 25.0361 13.1478 22.5869C13.1478 20.1302 16.1934 17.802 20.8628 16.3581C19.7853 11.5505 20.2642 7.72552 22.3744 6.50093C22.8608 6.21368 23.4295 6.07761 24.0581 6.07761C26.1159 6.07761 28.8098 7.55922 31.5337 10.1294C34.2575 7.57434 36.9514 6.10785 39.0093 6.10785C39.6378 6.10785 40.2066 6.24392 40.7004 6.53117C42.8032 7.75576 43.2746 11.5732 42.1896 16.3657C46.8291 17.8095 49.8597 20.1378 49.8597 22.5869ZM40.1168 27.6289C39.8399 26.6538 39.4957 25.6484 39.1065 24.643C38.7997 25.2478 38.478 25.8525 38.1263 26.4573C37.782 27.062 37.4154 27.6516 37.0487 28.2261C38.1113 28.0674 39.1365 27.8708 40.1168 27.6289ZM36.6895 19.5784C36.1058 18.5579 35.5072 17.5903 34.8861 16.6907C33.7711 16.5925 32.6412 16.5396 31.5037 16.5396C30.3738 16.5396 29.2439 16.5925 28.1364 16.6832C27.5153 17.5827 26.9091 18.5428 26.3255 19.5557C25.7567 20.5459 25.2404 21.5513 24.769 22.5643C25.2329 23.5772 25.7567 24.5901 26.318 25.5804C26.9017 26.6009 27.5003 27.5685 28.1214 28.468C29.2364 28.5663 30.3663 28.6192 31.5037 28.6192C32.6337 28.6192 33.7636 28.5663 34.8711 28.4756C35.4922 27.576 36.0984 26.616 36.682 25.6031C37.2507 24.6128 37.7671 23.6074 38.2385 22.5945C37.7671 21.5816 37.2507 20.5686 36.6895 19.5784ZM39.1065 20.5611C39.5106 19.5481 39.8549 18.5352 40.1392 17.5525C39.1589 17.3106 38.1263 17.1065 37.0562 16.9478C37.4229 17.5298 37.7895 18.127 38.1337 18.7393C38.478 19.344 38.7997 19.9563 39.1065 20.5611ZM31.5187 12.4954C30.8228 13.2211 30.1269 14.0299 29.4384 14.9143C30.1119 14.8841 30.8003 14.8614 31.4963 14.8614C32.1997 14.8614 32.8956 14.8765 33.5766 14.9143C32.9031 14.0299 32.2072 13.2211 31.5187 12.4954ZM25.9513 16.9478C24.8887 17.1065 23.8635 17.303 22.8832 17.5449C23.1601 18.5201 23.5043 19.5255 23.8935 20.5308C24.2003 19.9261 24.522 19.3214 24.8737 18.7166C25.2254 18.1119 25.5846 17.5223 25.9513 16.9478ZM31.4813 32.6785C32.1772 31.9528 32.8731 31.144 33.5616 30.2595C32.8881 30.2898 32.1997 30.3125 31.5037 30.3125C30.8003 30.3125 30.1044 30.2973 29.4235 30.2595C30.0969 31.144 30.7929 31.9528 31.4813 32.6785ZM25.9438 28.2261C25.5772 27.6441 25.2105 27.0469 24.8663 26.4346C24.522 25.8298 24.2003 25.2251 23.8935 24.6204C23.4894 25.6333 23.1452 26.6462 22.8608 27.6289C23.8411 27.8633 24.8737 28.0674 25.9438 28.2261ZM19.1716 18.762C16.5226 19.9034 14.809 21.4001 14.809 22.5869C14.809 23.7737 16.5226 25.278 19.1716 26.4119C19.8152 26.6916 20.5186 26.941 21.2445 27.1754C21.671 25.6938 22.2322 24.1517 22.9281 22.5718C22.2397 20.9995 21.686 19.465 21.2669 17.9909C20.5261 18.2253 19.8227 18.4823 19.1716 18.762ZM23.1975 7.95986C22.1798 8.54948 21.7383 10.7946 22.0826 13.6822C22.1649 14.3927 22.2996 15.1411 22.4642 15.9046C23.9309 15.5417 25.5323 15.2621 27.2159 15.0806C28.2262 13.6822 29.2738 12.4122 30.3289 11.301C27.8894 9.01059 25.5996 7.75576 24.0431 7.75576C23.7064 7.76332 23.422 7.83135 23.1975 7.95986ZM40.9474 13.72C41.2991 10.8324 40.8651 8.58727 39.8549 7.99009C39.6304 7.85403 39.3385 7.79355 38.9943 7.79355C37.4453 7.79355 35.148 9.04082 32.7085 11.3161C33.7562 12.4274 34.8038 13.6897 35.799 15.0882C37.4902 15.2696 39.0916 15.5493 40.5583 15.9197C40.7304 15.1562 40.8651 14.423 40.9474 13.72ZM43.8284 18.762C43.1848 18.4823 42.4814 18.2328 41.7556 17.9985C41.329 19.4801 40.7678 21.0222 40.0719 22.6021C40.7603 24.1744 41.3141 25.7089 41.7331 27.1829C42.4739 26.9486 43.1773 26.6916 43.8358 26.4119C46.4849 25.2705 48.1985 23.7737 48.1985 22.5869C48.191 21.4001 46.4774 19.8959 43.8284 18.762Z" fill="#18CA75"/>
<path d="M31.4963 19.1324C33.385 19.1324 34.9161 20.679 34.9161 22.5869C34.9161 24.4948 33.385 26.0415 31.4963 26.0415C29.6076 26.0415 28.0765 24.4948 28.0765 22.5869C28.0765 20.679 29.6076 19.1324 31.4963 19.1324Z" fill="#18CA75"/>
</svg>
