<svg width="20" height="21" viewBox="0 0 20 21" fill="none" xmlns="http://www.w3.org/2000/svg">
<path fill-rule="evenodd" clip-rule="evenodd" d="M9 2.38409C5.13401 2.38409 2 5.5181 2 9.38409C2 13.2501 5.13401 16.3841 9 16.3841C10.8859 16.3841 12.5977 15.6383 13.8564 14.4255C13.8827 14.3913 13.9115 14.3583 13.9429 14.327C13.9742 14.2956 14.0072 14.2668 14.0414 14.2405C15.2542 12.9818 16 11.27 16 9.38409C16 5.5181 12.866 2.38409 9 2.38409ZM16.0319 15.0018C17.2635 13.4621 18 11.5091 18 9.38409C18 4.41353 13.9706 0.384094 9 0.384094C4.02944 0.384094 0 4.41353 0 9.38409C0 14.3547 4.02944 18.3841 9 18.3841C11.125 18.3841 13.078 17.6476 14.6177 16.416L18.2929 20.0912C18.6834 20.4817 19.3166 20.4817 19.7071 20.0912C20.0976 19.7007 20.0976 19.0675 19.7071 18.677L16.0319 15.0018Z" fill="white"/>
</svg>
